<svg width="202" height="34" viewBox="0 0 202 34" fill="none" xmlns="http://www.w3.org/2000/svg">
<path d="M3.86758 18.1582C3.96133 17.0684 4.0082 16.0312 4.0082 15.0469C4.0082 14.0625 3.96719 13.1309 3.88515 12.252C3.72109 10.4238 3.10586 8.98242 2.03945 7.92773C4.78164 7.79883 7.4125 7.23633 9.93203 6.24023C7.37734 4.96289 4.31875 4.32422 0.756248 4.32422C0.568748 4.32422 0.381248 4.32422 0.193748 4.32422L5.97695 0C11.3793 0.832031 15.3871 2.74805 18.0004 5.74805C20.6254 8.74805 22.0375 12.6973 22.2367 17.5957L11.8832 26.4375C8.54336 24.75 4.58242 23.3496 0.000389099 22.2363L3.86758 18.1582ZM10.7582 6.69727C10.3949 7.36523 10.1078 8.00977 9.89687 8.63086C9.68594 9.24023 9.58047 9.82617 9.58047 10.3887C9.58047 10.9512 9.58633 11.666 9.59805 12.5332C9.62148 13.3887 9.6625 14.1973 9.72109 14.959C9.77969 15.7207 9.98476 16.6172 10.3363 17.6484C10.0902 17.625 9.85 17.6133 9.61562 17.6133C8.43203 17.6133 7.30703 17.8535 6.24062 18.334C9.05312 20.3848 11.2387 21.4102 12.7973 21.4102C13.4418 21.4102 13.9809 21.2285 14.4145 20.8652C15.7387 19.752 16.4008 18.1465 16.4008 16.0488C16.4008 14.1855 15.9145 12.4395 14.9418 10.8105C13.9691 9.16992 12.5746 7.79883 10.7582 6.69727ZM23.4617 13.6406L30.3172 8.06836L38.0867 11.707C37.1727 12.5039 36.7098 13.4004 36.698 14.3965L36.6277 20.2148C36.6277 20.6133 36.8328 21.0645 37.243 21.5684C37.6648 22.0723 38.0633 22.4766 38.4383 22.7812L34.8875 26.4375L32.1629 23.6426C31.5066 24.1699 30.8445 24.6562 30.1766 25.1016C29.5086 25.5352 28.9109 25.9922 28.3836 26.4727C26.6258 25.8164 24.9852 24.8027 23.4617 23.4316C23.8953 22.8809 24.1473 22.0781 24.2176 21.0234L24.1648 15.7148C24.1648 15.668 24.1648 15.6211 24.1648 15.5742C24.1648 14.8828 23.9305 14.2383 23.4617 13.6406ZM29.491 12.2871C28.8113 13.3066 28.4715 14.2148 28.4715 15.0117V19.3184C28.4715 20.1973 28.6297 20.8242 28.9461 21.1992C29.2156 21.5859 29.4617 21.9316 29.6844 22.2363C29.9187 22.541 30.2879 22.7637 30.7918 22.9043L32.2332 21.8672V13.7812L29.491 12.2871ZM39.6281 11.3379L42.2824 7.99805L46.2199 9.84375C46.0793 10.3242 45.927 10.793 45.7629 11.25C45.5988 11.707 45.5168 12.1758 45.5168 12.6562L45.2707 19.793C45.2707 19.8516 45.2707 19.9043 45.2707 19.9512C45.2707 20.502 45.4465 20.959 45.798 21.3223C46.1496 21.6855 46.5539 21.9609 47.0109 22.1484L43.4953 26.4375L39.7688 23.4316C40.4484 22.623 40.7883 21.8145 40.7883 21.0059L40.9113 13.0254C40.9113 12.4629 40.4836 11.9004 39.6281 11.3379ZM40.1555 7.83984L41.5617 0.896484L46.7824 2.98828L40.1555 7.83984ZM56.9195 22.4297C54.9039 24.6562 53.6031 26.0859 53.0172 26.7188C52.15 26.0625 51.2828 25.4062 50.4156 24.75C49.5602 24.082 48.7047 23.4199 47.8492 22.7637C48.6461 22.0723 49.1676 21.4336 49.4137 20.8477C49.6598 20.2617 49.7887 19.7051 49.8004 19.1777L49.8883 8.54297C49.8883 7.78125 49.8531 6.87305 49.7828 5.81836C49.7242 4.76367 49.4664 3.87305 49.0094 3.14648L54.8102 0C54.4937 1.40625 54.3062 2.86523 54.2477 4.37695C54.2008 5.88867 54.1773 7.42383 54.1773 8.98242L54.107 19.3008C54.107 20.1797 54.1891 20.6777 54.3531 20.7949C54.5172 20.9121 55.3727 21.457 56.9195 22.4297ZM65.5098 26.3848L63.541 25.4883L59.3047 24.1875C60.0078 23.3086 60.3594 22.248 60.3594 21.0059L60.5 13.0254C60.5 12.4395 60.0664 11.877 59.1992 11.3379L61.8535 7.99805L66.0723 10.793C65.9434 11.2734 65.7617 11.6191 65.5273 11.8301C65.3047 12.0293 65.1699 12.3691 65.123 12.8496L64.332 21.0938C64.2969 21.457 64.5312 22.0195 65.0352 22.7812C65.5508 23.543 66.1953 23.9414 66.9688 23.9766C68.1875 21.1758 68.832 17.5254 68.9023 13.0254C68.9258 12.4746 68.5039 11.9121 67.6367 11.3379L70.291 7.99805L74.2637 10.793C74.1348 11.2734 74 11.5898 73.8594 11.7422C73.7188 11.8828 73.502 12.6094 73.209 13.9219C72.916 15.2227 72.2832 17.0215 71.3105 19.3184C70.3496 21.6152 69.2891 23.7656 68.1289 25.7695C66.9805 27.7617 65.8027 29.4961 64.5957 30.9727C63.4004 32.4609 62.3281 33.4512 61.3789 33.9434L57.9688 31.166C61.3906 29.9121 63.9043 28.3184 65.5098 26.3848ZM92.3461 7.875C91.0102 6.73828 89.6508 5.94727 88.268 5.50195C88.1859 6.60352 88.1449 7.99219 88.1449 9.66797C88.1449 11.3438 88.3266 13.2773 88.6898 15.4688L83.1352 17.9473C84.0727 18.9199 85.3207 19.6523 86.8793 20.1445C87.7348 20.4141 88.6547 20.5488 89.6391 20.5488C90.6352 20.5488 91.6547 20.4609 92.6977 20.2852L89.6391 26.7188C86.2289 25.6055 83.5336 24.5273 81.5531 23.4844C79.5727 22.4297 78.0902 21.1934 77.1059 19.7754C76.1332 18.3574 75.5473 16.6465 75.348 14.6426C75.2191 13.3887 75.1547 12.1055 75.1547 10.793C75.1547 9.46875 75.1781 8.24414 75.225 7.11914L89.6742 0L93.893 3.05859L92.3461 7.875ZM83.3461 5.67773C81.4125 6.60352 80.4457 8.30273 80.4457 10.7754C80.4457 13.0137 80.9965 14.9766 82.098 16.6641C82.848 16.1719 83.3109 15.1934 83.4867 13.7285C83.557 13.1543 83.5922 12.2637 83.5922 11.0566C83.5922 9.83789 83.5102 8.04492 83.3461 5.67773ZM103.134 22.4297C101.118 24.6562 99.8172 26.0859 99.2312 26.7188C98.3641 26.0625 97.4969 25.4062 96.6297 24.75C95.7742 24.082 94.9187 23.4199 94.0633 22.7637C94.8602 22.0723 95.3816 21.4336 95.6277 20.8477C95.8738 20.2617 96.0027 19.7051 96.0145 19.1777L96.1023 8.54297C96.1023 7.78125 96.0672 6.87305 95.9969 5.81836C95.9383 4.76367 95.6805 3.87305 95.2234 3.14648L101.024 0C100.708 1.40625 100.52 2.86523 100.462 4.37695C100.415 5.88867 100.391 7.42383 100.391 8.98242V10.6172L103.819 7.99805C107.089 11.1035 108.723 14.6309 108.723 18.5801C108.723 22.9629 107.018 27.7734 103.608 33.0117L100.989 32.1855C103.626 29.291 104.944 25.9805 104.944 22.2539C104.944 18.3164 103.421 15.0234 100.374 12.375L100.321 19.3008C100.321 20.1797 100.403 20.6777 100.567 20.7949C100.731 20.9121 101.587 21.457 103.134 22.4297ZM116.417 10.5645L118.702 8.24414C121.058 9.87305 122.652 11.5254 123.484 13.2012L120.671 16.9629C120.355 16.0371 119.921 15.2227 119.37 14.5195C118.831 13.8164 117.929 13.0957 116.663 12.3574L116.083 13.1484L115.749 19.1426C115.714 19.752 116.101 20.3848 116.909 21.041C117.718 21.6973 118.345 22.1191 118.79 22.3066L115.872 26.4375L110.423 22.2012C111.079 21.416 111.419 20.6074 111.443 19.7754L111.407 13.0254C111.372 12.4629 110.939 11.9004 110.107 11.3379L112.761 7.99805L116.417 10.5645ZM125.254 12.9023C127.984 11.0742 130.252 9.41602 132.056 7.92773C132.959 8.31445 133.867 9.00586 134.781 10.002C136.761 12.123 137.933 14.3379 138.296 16.6465C138.343 16.916 138.367 17.1738 138.367 17.4199C138.367 18.1934 138.15 18.8203 137.716 19.3008L131.88 26.7363L124.357 23.0273C125.154 21.375 125.552 19.9453 125.552 18.7383L125.517 14.6426C125.482 13.7988 125.394 13.2188 125.254 12.9023ZM129.982 12.2871L129.929 19.7578C130.035 20.332 130.439 20.7832 131.142 21.1113C131.845 21.4277 132.308 21.5859 132.531 21.5859C132.765 21.5859 132.923 21.5742 133.005 21.5508C134.037 21.3164 134.552 20.666 134.552 19.5996C134.552 19.3535 134.523 19.0781 134.464 18.7734C134.066 16.8398 133.486 15.3809 132.724 14.3965C131.974 13.4004 131.06 12.6973 129.982 12.2871ZM146.236 10.5645L148.293 7.99805L153.9 12.0586L153.373 14.1328L153.145 19.793C153.145 19.8281 153.145 19.8633 153.145 19.8984C153.145 20.4727 153.32 20.9473 153.672 21.3223C154.023 21.6855 154.422 21.9609 154.867 22.1484L151.352 26.4375C150.484 25.7578 149.816 25.1543 149.348 24.627C148.891 24.0996 148.662 23.0156 148.662 21.375C148.662 21.2578 148.662 21.1348 148.662 21.0059L148.785 14.502C148.785 14.0098 148.035 13.1895 146.535 12.041L145.832 13.1484L145.498 19.793C145.498 19.8281 145.498 19.8633 145.498 19.8984C145.498 20.4727 145.674 20.9473 146.025 21.3223C146.377 21.6855 146.781 21.9609 147.238 22.1484L143.723 26.4375L140.014 23.4316C140.682 22.623 141.016 21.8145 141.016 21.0059L141.156 13.0254C141.156 12.4629 140.723 11.9004 139.855 11.3379L142.51 7.99805L146.236 10.5645ZM156.092 11.3379L158.746 7.99805L162.684 9.84375C162.543 10.3242 162.391 10.793 162.227 11.25C162.063 11.707 161.981 12.1758 161.981 12.6562L161.735 19.793C161.735 19.8516 161.735 19.9043 161.735 19.9512C161.735 20.502 161.911 20.959 162.262 21.3223C162.614 21.6855 163.018 21.9609 163.475 22.1484L159.959 26.4375L156.233 23.4316C156.913 22.623 157.252 21.8145 157.252 21.0059L157.375 13.0254C157.375 12.4629 156.948 11.9004 156.092 11.3379ZM156.62 7.83984L158.026 0.896484L163.246 2.98828L156.62 7.83984ZM176.108 20.6191L170.167 26.4727C166.417 23.9883 164.542 21.0938 164.542 17.7891C164.542 16.1602 165.069 14.5547 166.124 12.9727C167.179 11.3906 168.878 9.66211 171.221 7.78711C172.229 8.44336 173.266 9.08789 174.333 9.7207C175.399 10.3418 176.448 10.9629 177.479 11.584L173.964 14.6777C173.261 14.2441 172.698 13.875 172.276 13.5703C171.866 13.2539 171.427 12.9902 170.958 12.7793C170.501 12.5684 170.167 12.4629 169.956 12.4629C169.757 12.4629 169.54 12.5801 169.305 12.8145C168.579 13.5527 168.216 14.3848 168.216 15.3105C168.216 16.9395 169.165 18.6797 171.063 20.5312C171.544 20.9766 172.007 21.1992 172.452 21.1992C173.237 21.1992 173.952 20.6602 174.596 19.582C174.843 19.7578 175.089 19.9336 175.335 20.1094C175.593 20.2734 175.85 20.4434 176.108 20.6191ZM187.3 22.4297C185.284 24.6562 183.984 26.0859 183.398 26.7188C182.53 26.0625 181.663 25.4062 180.796 24.75C179.941 24.082 179.085 23.4199 178.23 22.7637C179.027 22.0723 179.548 21.4336 179.794 20.8477C180.04 20.2617 180.169 19.7051 180.181 19.1777L180.269 8.54297C180.269 7.78125 180.234 6.87305 180.163 5.81836C180.105 4.76367 179.847 3.87305 179.39 3.14648L185.191 0C184.874 1.40625 184.687 2.86523 184.628 4.37695C184.581 5.88867 184.558 7.42383 184.558 8.98242L184.487 19.3008C184.487 20.1797 184.57 20.6777 184.734 20.7949C184.898 20.9121 185.753 21.457 187.3 22.4297ZM196.875 26.4375L188.455 23.0801C188.771 21.3223 188.929 19.4941 188.929 17.5957C188.929 15.6855 188.748 13.6934 188.384 11.6191L194.449 8.05078V7.99805L194.484 8.01562H194.502L201.339 12.9199L194.22 20.4082C194.701 20.9824 195.234 21.2988 195.82 21.3574C196.406 21.416 196.886 21.4453 197.261 21.4453C197.648 21.4453 198.099 21.4277 198.615 21.3926C199.142 21.3457 199.787 21.3105 200.548 21.2871C199.927 22.1543 199.312 23.0156 198.703 23.8711C198.093 24.7266 197.484 25.582 196.875 26.4375ZM193.957 12.7441C193.277 12.7441 192.937 13.6699 192.937 15.5215C192.937 16.5762 193.113 17.6309 193.464 18.6855C193.464 18.791 193.482 18.8789 193.517 18.9492L196.347 15.9609C196.546 15.75 196.646 15.5391 196.646 15.3281C196.646 15.1172 196.541 14.8477 196.33 14.5195C196.13 14.1914 195.925 13.9219 195.714 13.7109C194.976 13.0664 194.39 12.7441 193.957 12.7441Z" fill="black"/>
</svg>
